<?xml version="1.0" encoding="UTF-8"?>
<svg id="Layer_2" data-name="Layer 2" xmlns="http://www.w3.org/2000/svg" viewBox="0 0 417.78 73.84">
  <defs>
    <style>
      .cls-1 {
        fill: #1e3c70;
      }

      .cls-1, .cls-2, .cls-3 {
        stroke-width: 0px;
      }

      .cls-2 {
        fill: #5854a4;
      }

      .cls-3 {
        fill: #2ebec1;
      }
    </style>
  </defs>
  <g id="Layer_1-2" data-name="Layer 1">
    <path class="cls-1" d="M0,.38c10.01.17,18.91.34,28.92.51l29.86,50.46-11.97,22.48c-5.35-8.94-9-16.31-11.8-21.28,0,0-11.76-20.9-22.8-38.17-.97-1.51-3.17-4.92-6.76-8.8C3.33,3.29,1.39,1.55,0,.38Z"/>
    <polygon class="cls-2" points="42.48 .38 88.99 .38 65.73 13.94 42.48 .38"/>
    <polygon class="cls-3" points="65.73 41.23 88.99 .38 65.73 13.94 65.73 41.23"/>
    <g>
      <path class="cls-1" d="M119.65,40.89L107.43,1.33v-.31h8.03l10.07,33.12h1.23L136.77,1.02h7.62v.31l-12.22,39.56h-12.52Z"/>
      <path class="cls-1" d="M144.72,25.51c0-9.87,5.06-16.05,14.52-16.05,8.89,0,13.8,5.62,13.8,16.2v1.69h-20.91c.31,5.37,2.81,8.84,7.21,8.84,3.37,0,5.42-2.25,6.13-5.11h7.21c-1.02,5.78-5.11,10.58-13.39,10.58-9.51,0-14.57-6.24-14.57-16.15ZM165.68,22.44c-.31-4.96-2.5-7.77-6.49-7.77s-6.54,2.66-7.05,7.77h13.55Z"/>
      <path class="cls-1" d="M177.67,40.89V10.22h7v4.6h1.23c1.18-3.17,3.63-5.37,8.49-5.37,6.85,0,10.22,4.65,10.22,11.91v19.53h-7.62v-18.2c0-4.5-1.53-7-5.06-7-4.24,0-6.65,3.73-6.65,8.64v16.56h-7.62Z"/>
      <path class="cls-1" d="M215.37,40.89c-1.58-1.84-2.56-3.99-2.56-9.15V15.64h-4.19v-5.42h4.29V2.56h7.41v7.67h5.06v5.42h-5.01v15.23c0,5.47,1.38,7.87,3.12,9.71v.31h-8.13Z"/>
      <path class="cls-1" d="M229.4,29.75V10.22h7.62v18.2c0,4.45,1.53,7,5.01,7,4.29,0,6.7-3.78,6.7-8.64V10.22h7.62v30.67h-6.85v-4.6h-1.23c-1.02,3.17-3.73,5.37-8.54,5.37-6.95,0-10.33-4.7-10.33-11.91Z"/>
      <path class="cls-1" d="M263.12,40.89V10.22h6.9v5.52h1.23c.61-2.96,2.45-5.83,8.38-5.83h1.48v6.9h-2.1c-5.88,0-8.28,2.96-8.28,9.05v15.03h-7.62Z"/>
      <path class="cls-1" d="M282.06,25.51c0-9.87,5.06-16.05,14.52-16.05,8.89,0,13.8,5.62,13.8,16.2v1.69h-20.91c.31,5.37,2.81,8.84,7.21,8.84,3.37,0,5.42-2.25,6.13-5.11h7.21c-1.02,5.78-5.11,10.58-13.39,10.58-9.51,0-14.57-6.24-14.57-16.15ZM303.01,22.44c-.31-4.96-2.5-7.77-6.49-7.77s-6.54,2.66-7.05,7.77h13.55Z"/>
      <path class="cls-1" d="M326.38,40.89V1.02h7.87v33.58h17.18v6.29h-25.05Z"/>
      <path class="cls-1" d="M352.78,25.51c0-9.51,4.14-15.95,12.42-15.95,4.4,0,7.1,1.94,8.43,4.65h1.23v-3.99h7v30.67h-7v-3.99h-1.23c-1.33,2.56-4.04,4.65-8.43,4.65-8.43,0-12.42-6.64-12.42-16.05ZM374.3,25.56c0-6.39-2.86-10.48-7.21-10.48-4.04,0-6.49,3.58-6.49,10.48s2.45,10.48,6.49,10.48c4.34,0,7.21-4.09,7.21-10.48Z"/>
      <path class="cls-1" d="M396.92,36.91h-1.23v3.99h-7V0h7.62v13.65h1.23c1.43-2.5,3.94-4.09,7.97-4.09,8.08,0,12.27,6.44,12.27,15.95s-4.04,16.05-12.32,16.05c-4.55,0-7.21-2.1-8.54-4.65ZM409.91,25.56c0-6.9-2.4-10.48-6.44-10.48-4.4,0-7.21,4.09-7.21,10.48s2.81,10.48,7.21,10.48c4.04,0,6.44-3.58,6.44-10.48Z"/>
    </g>
    <g>
      <path class="cls-1" d="M119.56,73.84v-19.08h-6.9v-3.54h18.26v3.54h-6.9v19.08h-4.46Z"/>
      <path class="cls-1" d="M134.11,73.84v-22.61h4.46v8.73h10.09v-8.73h4.46v22.61h-4.46v-10.26h-10.09v10.26h-4.46Z"/>
      <path class="cls-1" d="M155.71,73.84v-.17l6.96-22.44h7.02l6.99,22.44v.17h-4.61l-1.74-5.88h-8.61l-1.77,5.88h-4.23ZM162.72,64.53h6.58l-2.93-9.86h-.7l-2.96,9.86Z"/>
      <path class="cls-1" d="M179.28,73.84v-22.61h9.1c5.77,0,8.32,2.64,8.32,6.73s-2.52,6.76-8.32,6.76h-4.7v9.13h-4.41ZM183.68,61.31h4.12c2.87,0,4.44-.9,4.44-3.33s-1.57-3.36-4.44-3.36h-4.12v6.7Z"/>
      <path class="cls-1" d="M196.18,73.84v-.17l6.96-22.44h7.02l6.99,22.44v.17h-4.61l-1.74-5.88h-8.61l-1.77,5.88h-4.23ZM203.19,64.53h6.58l-2.93-9.86h-.7l-2.96,9.86Z"/>
      <path class="cls-1" d="M219.74,73.84v-22.61h9.31c5.74,0,8.15,2.67,8.15,6.32,0,2.87-1.57,5.04-4.58,5.88l5.19,10.23v.17h-4.73l-4.78-9.77h-4.15v9.77h-4.41ZM224.15,60.79h4.32c2.75,0,4.2-.87,4.2-3.1s-1.48-3.07-4.2-3.07h-4.32v6.18Z"/>
    </g>
  </g>
</svg>